<svg viewBox="0 0 115 21" fill="none" xmlns="http://www.w3.org/2000/svg">
<path d="M8.316 14.921C5.565 14.921 3.318 12.695 3.318 9.86C3.318 7.067 5.586 4.946 8.715 4.946C10.332 4.946 11.487 5.597 13.188 7.613C13.356 7.508 13.797 7.235 13.944 7.13C14.154 7.004 14.742 6.626 14.952 6.479C13.083 3.917 11.172 2.825 8.715 2.825C4.389 2.825 1.113 5.933 1.113 9.965C1.113 13.934 4.284 17 8.463 17C11.193 17 13.713 15.509 14.91 13.178C14.322 12.842 13.818 12.569 13.209 12.296C11.445 14.081 9.912 14.921 8.316 14.921ZM21.1606 17V10.826H27.6286V17H29.7286V2.825H27.6076V8.726H21.1606V2.825H19.0606V17H21.1606ZM34.0551 2.825V17H43.4421V14.963H36.2601V10.847L43.4421 10.826V8.705H36.2391V4.883H43.4421V2.825H34.0551ZM47.5525 2.825V17H56.9395V14.963H49.7575V10.847L56.9395 10.826V8.705H49.7365V4.883H56.9395V2.825H47.5525ZM66.951 12.002L69.408 17H71.823L69.135 11.519C70.584 10.721 71.277 9.083 71.277 7.361C71.277 4.862 69.87 2.825 67.203 2.825H61.05V17H63.192L63.171 12.002H66.951ZM69.093 7.361C69.093 9.692 67.812 9.818 65.901 9.818C65.754 9.818 65.586 9.797 65.439 9.797H63.192V4.862H67.203C68.337 4.862 69.093 5.828 69.093 7.361ZM78.0834 17V2.825H75.9414V17H78.0834Z" fill="url(#paint0_linear_444_5112)"/>
<path d="M91.544 5.992C92.408 5.368 92.492 4.72 92.492 4.108C92.48 3.208 92.048 2.608 91.472 2.2C91.1 1.936 90.488 1.9 89.852 1.9C89.732 1.9 89.6 1.9 89.468 1.912H86.636V10H90.356C90.872 10 91.184 9.904 91.604 9.7C92.288 9.22 92.504 8.428 92.504 7.696C92.504 6.856 92.036 6.388 91.544 5.992ZM91.436 4.144C91.436 5.488 90.248 5.5 89.192 5.5H87.644V2.908L90.308 2.92C91.076 2.92 91.436 3.544 91.436 4.144ZM87.644 6.508H90.164C91.004 6.592 91.388 7.192 91.388 7.828C91.388 8.824 90.836 9.064 89.888 9.064C89.78 9.064 89.66 9.052 89.54 9.052H89.18L87.644 9.028V6.508ZM94.1327 1.912V10H99.4127V9.064H95.1767V6.376L99.4127 6.364V5.38H95.1647V2.86H99.4127V1.912H94.1327ZM101.044 2.848H103.48V10H104.5L104.476 2.836H106.912L106.876 1.912H101.044V2.848ZM107.513 10L108.401 7.48H111.497L112.457 10H113.561C113.201 9.052 112.781 7.936 112.433 7.036C111.617 4.852 110.861 2.872 110.465 1.912H109.409L106.349 10H107.513ZM111.113 6.448H108.809L109.961 3.4L111.113 6.448Z" fill="black"/>
<defs>
<linearGradient id="paint0_linear_444_5112" x1="27" y1="6" x2="28" y2="16" gradientUnits="userSpaceOnUse">
<stop offset="0.450282"/>
<stop offset="0.510466" stop-color="#FF7A00"/>
</linearGradient>
</defs>
</svg>
